<svg id="图层_1" data-name="图层 1" xmlns="http://www.w3.org/2000/svg" viewBox="0 0 459.63 458.58"><title>oide</title><path d="M404.52,200.81q-29,28.19-57.48,57T290,315.43q-16.14,16.24-32.41,32.36c-1.37,1.36.75,3.48,2.13,2.12Q288.53,321.35,317,292.4t57.13-57.49q16.16-16.08,32.5-32c1.39-1.35-.73-3.47-2.12-2.12Z" transform="translate(-111.52 -197.64)"/><path d="M254.58,545.89c-.06,28.2-.08,56.4.11,84.6q.09,11.93.22,23.85a1.5,1.5,0,0,0,3,0c-.32-28.24-.39-56.48-.37-84.72q0-11.86,0-23.73a1.5,1.5,0,0,0-3,0Z" transform="translate(-111.52 -197.64)"/><path d="M254.91,347.75q-.48,40.92-.21,81.85.08,11.56.21,23.14a1.5,1.5,0,0,0,3,0q-.48-40.78-.21-81.58.07-11.71.21-23.41a1.5,1.5,0,0,0-3,0Z" transform="translate(-111.52 -197.64)"/><path d="M404.8,504.2l-58.3,58.3-58.3,58.3-32.85,32.85a1.5,1.5,0,0,0,2.12,2.12l58.29-58.29,58.3-58.3,32.86-32.86a1.5,1.5,0,0,0-2.12-2.12Z" transform="translate(-111.52 -197.64)"/><path d="M404.63,202q-.08,58.69-.09,117.39,0,58.44,0,116.89,0,33,.07,66a1.5,1.5,0,0,0,3,0q-.08-58.8-.09-117.59,0-58.41,0-116.83,0-32.94.07-65.88a1.5,1.5,0,0,0-3,0Z" transform="translate(-111.52 -197.64)"/><path d="M451.91,198.08c-19.17,19.52-38.64,38.74-58.13,57.93s-38.83,38.17-58,57.48q-16.29,16.39-32.31,33.05c-1.33,1.4.79,3.52,2.13,2.13,19-19.79,38.31-39.19,57.79-58.47s38.8-38.16,58.12-57.33q16.36-16.23,32.55-32.66c1.35-1.38-.77-3.51-2.12-2.13Z" transform="translate(-111.52 -197.64)"/><path d="M300.57,522.55q0,25.53,0,51.07t.12,50.82q.06,14.32.16,28.66a1.5,1.5,0,0,0,3,0q-.18-25.41-.24-50.83t0-50.88q0-14.43,0-28.84a1.5,1.5,0,0,0-3,0Z" transform="translate(-111.52 -197.64)"/><path d="M300.81,346.51V417.9a1.5,1.5,0,0,0,3,0V346.51a1.5,1.5,0,0,0-3,0Z" transform="translate(-111.52 -197.64)"/><path d="M450.7,503l-58.3,58.3-58.3,58.29-32.85,32.86a1.5,1.5,0,0,0,2.12,2.12l58.29-58.29,58.3-58.3,32.86-32.86A1.5,1.5,0,0,0,450.7,503Z" transform="translate(-111.52 -197.64)"/><path d="M450.53,199.35q0,59,0,118.06,0,58.74,0,117.48,0,33.08,0,66.15a1.5,1.5,0,0,0,3,0q0-59.16,0-118.34,0-58.69,0-117.39,0-33,0-66a1.5,1.5,0,0,0-3,0Z" transform="translate(-111.52 -197.64)"/><path d="M406.55,350a67.29,67.29,0,0,0-5.18,4.95,88.91,88.91,0,0,1-7,5.51L379.49,372Q364.61,383.47,349.78,395q-29.2,22.73-58.29,45.57-28.69,22.51-57.35,45.06T177,530.43q-28.72,22.47-57.58,44.8l-7.29,5.63c-1.51,1.16,0,3.77,1.51,2.59q28.85-22.26,57.55-44.7T228.35,494q28.65-22.5,57.28-45,29-22.79,58.11-45.49,14.79-11.52,29.59-23l15.13-11.7,7.41-5.72c2.36-1.82,4.87-3.51,7.1-5.49,1.76-1.57,3.21-3.53,5.1-5,1.51-1.16,0-3.77-1.52-2.6Z" transform="translate(-111.52 -197.64)"/><path d="M511.89,267.48l-47.57,37.29-13.51,10.59c-1.51,1.19.62,3.3,2.13,2.13l47.57-37.3L514,269.6c1.51-1.19-.62-3.3-2.13-2.12Z" transform="translate(-111.52 -197.64)"/><path d="M113.15,584l51,1.23c1.93,0,1.93-3,0-3l-51-1.23c-1.93-.05-1.93,2.95,0,3Z" transform="translate(-111.52 -197.64)"/><path d="M298,478q-26.22,20.5-52.51,40.95t-52.81,41l-29.5,22.81a1.51,1.51,0,0,0,0,2.13,1.54,1.54,0,0,0,2.12,0q26.26-20.29,52.48-40.63,26.42-20.47,52.77-41,14.81-11.54,29.57-23.09c1.52-1.19-.61-3.3-2.12-2.12Z" transform="translate(-111.52 -197.64)"/><path d="M406.21,392.12q-20,16.28-40.2,32.41t-40.46,32q-11.4,8.93-22.88,17.75a1.56,1.56,0,0,0-.54,2.06,1.5,1.5,0,0,0,2.05.53q20.47-15.75,40.73-31.77t40.59-32.41q11.43-9.21,22.84-18.46c1.5-1.22-.64-3.33-2.13-2.13Z" transform="translate(-111.52 -197.64)"/><path d="M563.2,269.11l-44.3,34.72-44.1,34.58-25,19.56c-1.52,1.19.62,3.3,2.12,2.12l44.37-34.77,44.1-34.58,24.89-19.51c1.52-1.19-.62-3.3-2.12-2.12Z" transform="translate(-111.52 -197.64)"/><path d="M516.16,268.46l51,1.22c1.93.05,1.93-2.95,0-3l-51-1.22c-1.93,0-1.93,3,0,3Z" transform="translate(-111.52 -197.64)"/><path d="M406,370q-28.65,22.18-57.27,44.42t-57,44.47q-28.56,22.32-57.07,44.71T178,548.28Q149.67,570.62,121.43,593l-7,5.56c-1.51,1.2.62,3.31,2.12,2.13q28.23-22.43,56.52-44.78t56.66-44.65q28.5-22.4,57.06-44.73t57-44.47q28.59-22.24,57.24-44.42l7.12-5.51c1.52-1.18-.62-3.29-2.13-2.12Z" transform="translate(-111.52 -197.64)"/><path d="M514.48,285c-16.21,13.62-33.36,26-50.12,39q-7.14,5.49-14.15,11.15c-1.51,1.22.63,3.33,2.12,2.12,16.42-13.3,33.59-25.64,50.2-38.7q7.13-5.6,14.07-11.41c1.48-1.24-.65-3.36-2.12-2.12Z" transform="translate(-111.52 -197.64)"/><path d="M115.73,601.47l51,1.23c1.93,0,1.93-3,0-3l-51-1.23c-1.93-.05-1.93,2.95,0,3Z" transform="translate(-111.52 -197.64)"/><path d="M406.43,412.22q-23.6,18.38-47.14,36.8t-47.06,36.82l-46.82,36.64q-23.49,18.36-47,36.72t-46.81,36.46l-5.88,4.56c-1.52,1.18.62,3.29,2.12,2.12q23.53-18.27,47-36.59t47-36.71l46.82-36.63,47.05-36.82q23.44-18.34,46.93-36.65l5.9-4.6c1.52-1.18-.62-3.29-2.12-2.12Z" transform="translate(-111.52 -197.64)"/><path d="M565.78,286.61q-22.46,17.77-45,35.46t-45.12,35.31l-25.47,19.88c-1.52,1.18.61,3.29,2.12,2.12q22.56-17.6,45.1-35.22t45.08-35.37q12.72-10,25.41-20.06c1.52-1.2-.62-3.31-2.12-2.12Z" transform="translate(-111.52 -197.64)"/><path d="M518.75,286l51,1.23c1.93.05,1.93-2.95,0-3l-51-1.23c-1.94,0-1.94,3,0,3Z" transform="translate(-111.52 -197.64)"/><path d="M314,423l-63.68,49.91-63.28,49.61-35.77,28c-1.51,1.19.62,3.3,2.13,2.12l63.67-49.91,63.28-49.61,35.77-28c1.52-1.19-.62-3.3-2.12-2.12Z" transform="translate(-111.52 -197.64)"/><path d="M347,439l-63.67,49.91L220,538.52l-35.76,28c-1.52,1.19.62,3.3,2.12,2.12L250,518.77l63.28-49.61,35.77-28c1.52-1.19-.62-3.3-2.12-2.12Z" transform="translate(-111.52 -197.64)"/><path d="M317.72,439.6q-31.32,24-62.54,48.13-31.38,24.3-62.46,49c-3,2.37-6,4.67-8.89,7.19s-5.63,4.86-8.5,7.23c-5.59,4.59-11.3,9-17,13.43a1.56,1.56,0,0,0-.54,2,1.52,1.52,0,0,0,2.06.54c5.05-3.88,10.09-7.78,15.05-11.79,5.18-4.19,10.12-8.66,15.32-12.81Q206,530,221.83,517.5q30.94-24.3,62.17-48.26,17.6-13.55,35.23-27.05c1.51-1.16,0-3.77-1.51-2.59Z" transform="translate(-111.52 -197.64)"/><path d="M302.51,493.37c-14.29,11.55-28.77,22.85-43.3,34.09S230,550,215.46,561.36q-12.35,9.66-24.55,19.49c-1.5,1.21.63,3.33,2.12,2.12,14.4-11.62,29-23,43.63-34.33s29.17-22.48,43.66-33.83q12.23-9.58,24.31-19.32c1.5-1.22-.63-3.33-2.12-2.12Z" transform="translate(-111.52 -197.64)"/><path d="M353.63,453.29l-50,39.21c-1.52,1.19.62,3.3,2.12,2.13l50-39.22c1.52-1.19-.61-3.3-2.12-2.12Z" transform="translate(-111.52 -197.64)"/></svg>